<svg width="60" height="70" viewBox="0 0 60 70" fill="none" xmlns="http://www.w3.org/2000/svg">
<g clip-path="url(#clip0_45_45)">
<path d="M59.9301 54.61L55.5501 16.02C55.1801 12.85 53.4401 10.24 51.0801 8.98001V37.56C51.0801 38.6 50.7301 39.58 50.1001 40.31L34.5001 58.48C33.8701 59.22 33.0301 59.63 32.1401 59.63H11.0601L11.3401 62.12C11.8501 66.68 15.2101 70.01 19.0701 70.01C19.4101 70.01 19.7501 69.99 20.0901 69.94L53.2301 64.84C57.4801 64.18 60.4901 59.6 59.9401 54.63L59.9301 54.61Z" fill="#E6E6E6"/>
<path d="M32.6899 44.91V56.25L48.2099 38.17H38.4699C35.2799 38.17 32.6899 41.19 32.6899 44.91Z" fill="#A6D2CE"/>
<path d="M40.99 2C43.9 2 46.27 4.95 46.27 8.58V33.48H38.74C32.98 33.48 28.29 38.75 28.29 45.24V54.44H7.28C4.37 54.44 2 51.49 2 47.86V8.58C2 4.95 4.37 2 7.28 2H40.99ZM40.99 0H7.28C3.35 0 0 3.77 0 8.58V47.86C0 52.67 3.35 56.44 7.28 56.44H30.29V45.24C30.29 39.94 34.01 35.48 38.74 35.48H48.27V8.58C48.27 3.77 44.92 0 40.99 0Z" fill="#008074"/>
<path d="M9.52995 30.24C8.50995 30.24 7.81995 31.17 7.81995 32.14C7.81995 33.1 8.50995 34.04 9.52995 34.04H28.3199C29.3399 34.04 30.0199 33.11 30.0299 32.14C30.0299 31.18 29.3399 30.24 28.3199 30.24H9.52995Z" fill="#008074"/>
<path d="M9.52995 19.77C8.50995 19.77 7.81995 20.7 7.81995 21.67C7.81995 22.63 8.50995 23.57 9.52995 23.57H38.7399C39.7599 23.57 40.4399 22.64 40.4399 21.67C40.4399 20.71 39.7499 19.77 38.7399 19.77H9.52995Z" fill="#008074"/>
<path d="M9.52995 9.29999C8.50995 9.29999 7.81995 10.23 7.81995 11.2C7.81995 12.16 8.50995 13.1 9.52995 13.1H38.7399C39.7599 13.1 40.4399 12.17 40.4399 11.2C40.4399 10.24 39.7499 9.29999 38.7399 9.29999H9.52995Z" fill="#008074"/>
</g>
<defs>
<clipPath id="clip0_45_45">
<rect width="60" height="70" fill="white"/>
</clipPath>
</defs>
</svg>
